<?xml version="1.0" encoding="UTF-8"?>
<svg version="1.1" xmlns="http://www.w3.org/2000/svg" width="549" height="593">
<path d="M0 0 C181.17 0 362.34 0 549 0 C549 195.69 549 391.38 549 593 C367.83 593 186.66 593 0 593 C0 397.31 0 201.62 0 0 Z " fill="#FEFEFE" transform="translate(0,0)"/>
<path d="M0 0 C4.4777358 3.74880206 7.36258096 8.17934884 10.26953125 13.203125 C10.60091599 13.77255829 10.93230072 14.34199158 11.27372742 14.92868042 C12.35266432 16.78377173 13.42627375 18.64188885 14.5 20.5 C16.01461169 23.10812095 17.53235879 25.71440865 19.05078125 28.3203125 C19.43448883 28.97945648 19.81819641 29.63860046 20.21353149 30.31771851 C22.81080577 34.77126857 25.44315406 39.20223352 28.10546875 43.6171875 C28.45309769 44.19380127 28.80072662 44.77041504 29.15888977 45.36450195 C30.81081278 48.10155119 32.46751659 50.83562359 34.12817383 53.56738281 C34.71493896 54.53772461 35.3017041 55.50806641 35.90625 56.5078125 C36.6787207 57.77842529 36.6787207 57.77842529 37.46679688 59.07470703 C39.78867335 63.21229092 40.08504707 66.55894453 39.6875 71.25 C37.9375 74.625 37.9375 74.625 35.6875 77.25 C33.546875 77.9140625 33.546875 77.9140625 31.6875 78.25 C35.22826754 83.29291134 38.99851348 87.75177079 43.46484375 92 C45.3761574 93.93482718 47.1515263 95.90957965 48.9296875 97.96484375 C51.46104956 100.88380056 54.05310767 103.71822372 56.73046875 106.50390625 C57.75237305 107.56834961 57.75237305 107.56834961 58.79492188 108.65429688 C60.18924152 110.10098533 61.58773488 111.54366201 62.99023438 112.98242188 C67.61998307 117.82361484 72.07215392 122.48100524 73.1875 129.3125 C72.54316012 133.09799678 71.0633347 135.26323637 68.6875 138.25 C65.76985 140.1951 64.06212715 140.70276317 60.6875 141.25 C61.65236328 142.03310547 61.65236328 142.03310547 62.63671875 142.83203125 C68.42095833 147.54358732 74.15003989 152.31017048 79.82861328 157.14819336 C82.46576332 159.38988894 85.11541475 161.60889174 87.81640625 163.7734375 C88.78449219 164.54945313 89.75257813 165.32546875 90.75 166.125 C91.60722656 166.80304688 92.46445312 167.48109375 93.34765625 168.1796875 C96.43134997 170.90816442 99.22351473 173.41005841 100.25390625 177.49609375 C100.24651472 181.64274059 100.012628 184.43298298 97.375 187.75 C93.05120902 191.77213114 89.10300633 191.39847276 83.50186157 191.39717102 C82.65753079 191.40084771 81.8132 191.4045244 80.94328344 191.4083125 C78.10362166 191.41935815 75.26399646 191.42319464 72.42431641 191.42700195 C70.39260237 191.43326581 68.36088948 191.43991254 66.32917786 191.44691467 C60.80234053 191.46432862 55.27551185 191.47487699 49.74865389 191.4831202 C46.29772955 191.48826832 42.84680791 191.49434406 39.39588547 191.50063133 C28.60450766 191.51968241 17.81313671 191.53391511 7.02174532 191.5422433 C-5.44636643 191.55202382 -17.91430103 191.57836502 -30.38235033 191.61874419 C-40.01298405 191.64886707 -49.64356688 191.66370844 -59.27424681 191.66702431 C-65.02957426 191.66937868 -70.78471244 191.67838975 -76.53998947 191.70348549 C-81.95233326 191.72670496 -87.36436232 191.73102412 -92.77674294 191.72072411 C-94.76455162 191.72022718 -96.75237548 191.72659348 -98.7401371 191.74028015 C-101.45143659 191.75790624 -104.16159509 191.750939 -106.87289429 191.73774719 C-107.66171002 191.74871644 -108.45052575 191.75968568 -109.26324499 191.77098733 C-114.24775062 191.71232937 -116.80663708 190.8040532 -120.3125 187.25 C-122.33000858 184.46391673 -122.71070813 181.79930278 -122.66772461 178.37524414 C-121.90032187 173.78401331 -119.2350636 169.85647283 -116.9375 165.875 C-116.38876221 164.89821289 -115.84002441 163.92142578 -115.2746582 162.91503906 C-113.63853986 160.01597297 -111.9809293 157.1305712 -110.3125 154.25 C-109.8808252 153.50395508 -109.44915039 152.75791016 -109.00439453 151.98925781 C-107.04039578 148.610179 -105.05299091 145.24560239 -103.0546875 141.88671875 C-99.69312887 136.22521229 -96.41135534 130.5178787 -93.125 124.8125 C-92.48715576 123.70551758 -91.84931152 122.59853516 -91.19213867 121.45800781 C-89.883914 119.18712726 -88.57589163 116.91613015 -87.26806641 114.64501953 C-84.11917946 109.1783002 -80.96566736 103.71425113 -77.8125 98.25 C-76.5624765 96.08334689 -75.31247653 93.91668021 -74.0625 91.75 C-66.5625 78.75 -59.0625 65.75 -51.5625 52.75 C-50.9430249 51.67596924 -50.3235498 50.60193848 -49.68530273 49.49536133 C-48.44358621 47.34360305 -47.20092077 45.19239208 -45.95727539 43.04174805 C-43.0436254 38.00052535 -40.13941061 32.95459171 -37.26974487 27.88821411 C-36.25511385 26.09794678 -35.23740298 24.3094658 -34.21875 22.52148438 C-32.94306817 20.28018228 -31.67316098 18.03557958 -30.41015625 15.78710938 C-22.71574364 2.30478861 -22.71574364 2.30478861 -16 -1.75 C-10.02619796 -3.37001411 -5.47509755 -2.89250437 0 0 Z " fill="#047341" transform="translate(287.3125,107.75)"/>
<path d="M0 0 C0.93005859 0.51046875 0.93005859 0.51046875 1.87890625 1.03125 C3.79868736 2.08195989 5.72083559 3.12834934 7.64453125 4.171875 C9.85745211 5.37751756 12.06341931 6.59602424 14.26171875 7.828125 C43.33915473 23.84839208 76.18148531 35.73698765 109 41 C109.93392578 41.15259277 110.86785156 41.30518555 111.83007812 41.46240234 C128.71575153 44.16933246 145.35065489 45.21078667 162.4375 45.1875 C163.76917206 45.18609512 163.76917206 45.18609512 165.12774658 45.18466187 C187.72270097 45.13302178 208.8808286 42.7321714 231 38 C232.09973145 37.77256104 232.09973145 37.77256104 233.22167969 37.54052734 C254.29994551 33.12295871 275.67465207 25.44815974 295 16 C296.0223877 15.50935059 296.0223877 15.50935059 297.06542969 15.00878906 C306.61983072 10.41748055 315.86202991 5.36855743 325 0 C334.11149877 8.90222407 341.78886287 19.18732604 349.60888672 29.21777344 C351.8984527 32.15105382 354.19975454 35.07509247 356.5 38 C357.41672418 39.16662147 358.33339083 40.33328816 359.25 41.5 C359.70375 42.0775 360.1575 42.655 360.625 43.25 C364.75 48.5 364.75 48.5 366.12573242 50.25097656 C367.03990015 51.41443323 367.95412516 52.57784489 368.8684082 53.74121094 C371.198787 56.70661899 373.52808115 59.67286857 375.85546875 62.640625 C381.20175901 69.45565618 386.5718394 76.24979455 392 83 C390.69459784 85.86978177 389.29284771 87.96284321 387.09375 90.21484375 C386.51955322 90.81200195 385.94535645 91.40916016 385.35375977 92.02441406 C384.74201904 92.65573242 384.13027832 93.28705078 383.5 93.9375 C363.43450699 115.06123985 345.79243905 140.90366297 346 171 C347.0826385 191.61620121 357.01845691 209.87771792 366 228 C390 276.67162593 390 276.67162593 390 293 C349.74 293 309.48 293 268 293 C270.52741609 290.47258391 272.11294075 290.39749697 275.60791016 289.73486328 C276.78318268 289.50767609 277.9584552 289.28048889 279.16934204 289.04641724 C280.44634979 288.80680267 281.72335754 288.56718811 283.0390625 288.3203125 C284.36244912 288.06471962 285.68563827 287.80810239 287.00863647 287.55050659 C292.62682762 286.45863277 298.24865004 285.38600892 303.87158203 284.31884766 C307.31233427 283.66509286 310.75069576 282.99976368 314.18793869 282.32781601 C316.12256057 281.95334572 318.05975809 281.59226095 319.99697876 281.23147583 C330.8417045 279.11107537 338.46658659 276.2460205 345 267 C349.65241518 259.87727588 350.25702786 252.31177608 349 244 C347.32050291 238.39882736 344.61069579 233.21158154 342 228 C340.63126829 225.19439484 339.28007445 222.38070848 337.9375 219.5625 C337.60274658 218.8605249 337.26799316 218.1585498 336.9230957 217.43530273 C333.63630207 210.4281248 330.9433643 203.27069523 328.60205078 195.89599609 C328.07713576 194.24291821 327.52342183 192.59904002 326.96484375 190.95703125 C320.0719871 167.20072065 325.90153799 142.31601894 337 121 C344.40568508 107.56878024 353.67340169 95.3182253 364 84 C362.36515835 80.31721156 360.09213324 77.36123936 357.625 74.1875 C357.18728271 73.62345459 356.74956543 73.05940918 356.29858398 72.47827148 C352.42609373 67.5053866 348.48919224 62.58397739 344.54248047 57.66992188 C341.08430994 53.36356268 337.65646963 49.03485511 334.25 44.6875 C329.86878504 39.09634735 325.45139533 33.53554606 321 28 C316.44543068 29.38226686 312.37760468 31.28390019 308.1875 33.5 C281.61680997 47.13202986 252.29748233 56.41496797 223 62 C222.04528809 62.18925049 222.04528809 62.18925049 221.07128906 62.38232422 C150.61818117 76.0768375 71.60451201 64.01436815 9.171875 28.73046875 C7.04982782 27.80316639 7.04982782 27.80316639 5.01953125 28.47265625 C2.13326581 30.65549917 0.09358025 33.3815499 -2.0625 36.25 C-3.04409593 37.52747816 -4.02587169 38.80481816 -5.0078125 40.08203125 C-5.50571289 40.73510254 -6.00361328 41.38817383 -6.51660156 42.06103516 C-8.79653965 45.0411649 -11.11633274 47.98944508 -13.4375 50.9375 C-13.88520752 51.50782959 -14.33291504 52.07815918 -14.79418945 52.66577148 C-18.75560045 57.7071193 -22.76275023 62.71130631 -26.77416992 67.71289062 C-30.56198911 72.43998872 -34.30536575 77.19957733 -38 82 C-36.25161791 86.20868025 -33.31415444 89.40484914 -30.4375 92.875 C-10.27564523 117.71421183 3.72411629 146.3106045 1 179 C-1.94153466 200.34647288 -11.68170638 219.93098042 -21.09545898 239.04907227 C-24.21613898 245.77980205 -23.94432442 253.86270241 -21.75 260.875 C-18.67313486 268.80329435 -13.79393774 274.36275902 -6.12280273 277.97802734 C-0.19160895 280.54497072 5.9435749 281.59307223 12.27734375 282.7265625 C13.52504044 282.96031586 14.77273712 283.19406921 16.0582428 283.43490601 C19.34565943 284.0500311 22.63439732 284.65643905 25.92443848 285.25726318 C30.581889 286.10806481 35.23783132 286.96653286 39.89173889 287.83651733 C42.36428479 288.2984311 44.8382584 288.7527783 47.31370544 289.19888306 C48.98167931 289.50963272 48.98167931 289.50963272 50.68334961 289.82666016 C51.66436142 290.00556793 52.64537323 290.18447571 53.65611267 290.36880493 C56 291 56 291 58 293 C17.74 293 -22.52 293 -64 293 C-62.87309424 282.85784812 -62.87309424 282.85784812 -61.46875 278.79296875 C-61.15808594 277.88820801 -60.84742188 276.98344727 -60.52734375 276.05126953 C-60.18832031 275.10622559 -59.84929688 274.16118164 -59.5 273.1875 C-58.96052734 271.66938721 -58.96052734 271.66938721 -58.41015625 270.12060547 C-53.78207571 257.34333985 -48.05039822 245.17122656 -42.08203125 232.9765625 C-41.73292694 232.26178741 -41.38382263 231.54701233 -41.0241394 230.81057739 C-39.2807492 227.24242782 -37.52944601 223.67872319 -35.75976562 220.12353516 C-24.39245549 197.11706233 -15.33743496 171.9055306 -23.52636719 146.27368164 C-28.409363 132.60748674 -35.85617609 120.20369633 -45 109 C-45.62132813 108.18917969 -46.24265625 107.37835938 -46.8828125 106.54296875 C-52.76671338 98.92344021 -59.39381809 91.98885708 -66 85 C-64.70185366 82.2472495 -63.26725733 79.86779487 -61.41796875 77.453125 C-60.64815674 76.44536011 -60.64815674 76.44536011 -59.86279297 75.41723633 C-59.30994629 74.70204834 -58.75709961 73.98686035 -58.1875 73.25 C-57.6114502 72.50065186 -57.03540039 71.75130371 -56.44189453 70.97924805 C-51.9652085 65.18363618 -47.37854131 59.48354481 -42.74145508 53.81591797 C-37.85887984 47.84709695 -33.08897067 41.79526339 -28.34277344 35.71777344 C-26.06766088 32.80728399 -23.78338866 29.90399784 -21.5 27 C-18.67667086 23.4086039 -15.85508837 19.81587681 -13.0390625 16.21875 C-12.55115234 15.59613281 -12.06324219 14.97351562 -11.56054688 14.33203125 C-10.63662307 13.15292849 -9.71339007 11.97328392 -8.79101562 10.79296875 C-5.92570709 7.13828298 -2.98778518 3.55535728 0 0 Z " fill="#0C2F26" transform="translate(114,26)"/>
<path d="M0 0 C96.69 0 193.38 0 293 0 C284.81312618 10.91583177 275.77264331 19.6712158 265 28 C264.1649292 28.65766357 264.1649292 28.65766357 263.31298828 29.32861328 C248.16257207 41.20843704 232.215839 48.48320065 213.70239258 53.6875 C194.61366374 59.06579032 176.20782415 65.96075881 158.59765625 75.11328125 C158.03071045 75.39872803 157.46376465 75.6841748 156.87963867 75.97827148 C154.89522101 77.01966799 154.89522101 77.01966799 152.72387695 78.52368164 C146.52918259 82.34531749 146.52918259 82.34531749 142.35229492 81.40209961 C139.45015811 80.04643563 136.7844709 78.50078449 134.0625 76.8125 C132.02005193 75.65073905 129.97443225 74.49453743 127.92578125 73.34375 C126.9198291 72.76753906 125.91387695 72.19132813 124.87744141 71.59765625 C108.33696829 62.41380625 89.48236366 57.16381869 71.50390625 51.6015625 C46.03858558 43.57122858 25.48391862 27.49207206 6.6875 8.9375 C6.1296582 8.38908447 5.57181641 7.84066895 4.99707031 7.27563477 C2.61293071 4.87156466 1.0853943 3.25618289 0 0 Z " fill="#0B2E26" transform="translate(131,450)"/>
<path d="M0 0 C4.55129596 1.35104484 6.03724367 2.99782309 8.3125 7.109375 C8.90708008 8.16415039 9.50166016 9.21892578 10.11425781 10.30566406 C10.73655273 11.44229492 11.35884766 12.57892578 12 13.75 C12.65558935 14.92246644 13.31283532 16.094008 13.97167969 17.26464844 C14.98234932 19.06075909 15.99197249 20.85736444 16.99627686 22.65704346 C20.82159343 29.50681382 24.84909045 36.2345365 28.875 42.96777344 C31.41953952 47.24528865 33.85631465 51.50707043 36 56 C31.92722359 56.35936262 29.74678671 56.5423094 26.375 54.09375 C25.59125 53.2378125 24.8075 52.381875 24 51.5 C22.72382813 50.13294922 22.72382813 50.13294922 21.421875 48.73828125 C19.35222563 46.3982422 17.29269786 44.05106412 15.25 41.6875 C9.96391265 35.3219291 9.96391265 35.3219291 2.4375 32.5 C-3.97440067 33.4326401 -7.75421971 37.4388215 -12.125 41.875 C-12.64964844 42.39191406 -13.17429687 42.90882813 -13.71484375 43.44140625 C-17.82693672 47.57431995 -21.42669886 51.36495455 -21.4375 57.5 C-21.30160043 61.79156546 -20.18534619 64.00202711 -17 67 C-13.78722539 68.6063873 -10.31549522 67.90497336 -6.80078125 67.75390625 C22.42027449 66.92084239 22.42027449 66.92084239 29.53515625 72.203125 C32.7971863 75.41521389 35.32595436 79.03888061 37.69677734 82.94335938 C39.65198228 86.02890572 42.02423435 88.43447955 44.5625 91.0625 C45.4184375 92.00222656 46.274375 92.94195312 47.15625 93.91015625 C49.31972987 96.27450834 51.51419988 98.60750212 53.71875 100.93359375 C54.35611084 101.6083374 54.99347168 102.28308105 55.65014648 102.97827148 C56.89836818 104.29788388 58.15032566 105.61397546 59.40649414 106.92602539 C59.97489014 107.52793701 60.54328613 108.12984863 61.12890625 108.75 C61.88796265 109.54664063 61.88796265 109.54664063 62.66235352 110.359375 C64.11121239 112.13640213 65.05001017 113.91968904 66 116 C66.66 116 67.32 116 68 116 C68 116.66 68 117.32 68 118 C62.37224283 118.72471913 57.21198097 119.25274983 52.14453125 116.3828125 C49.31002566 114.02979605 46.65777389 111.55072467 44 109 C41.85924086 107.13553258 39.67891729 105.31960053 37.5 103.5 C36.39526334 102.56447476 35.29109145 101.62828217 34.1875 100.69140625 C27.22669465 94.80358562 20.15295554 89.07222334 12.9375 83.5 C12.37675781 83.0661499 11.81601562 82.6322998 11.23828125 82.18530273 C6.47752942 78.53338981 4.31346654 77.63227642 -1.58837891 78.37988281 C-5.7831136 79.45850461 -8.52000564 82.02961688 -11.6875 84.875 C-13.07712707 86.06366764 -14.46777175 87.25114654 -15.859375 88.4375 C-16.54966797 89.035625 -17.23996094 89.63375 -17.95117188 90.25 C-21.03924484 92.88766766 -24.23138297 95.38330861 -27.4375 97.875 C-28.01177734 98.32617188 -28.58605469 98.77734375 -29.17773438 99.2421875 C-31.68620355 101.21167084 -34.20899135 103.15585796 -36.765625 105.0625 C-42.5155298 109.12103903 -42.5155298 109.12103903 -46 115 C-46.25906517 119.71498615 -45.92199037 122.80197908 -42.99113464 126.61029053 C-39.11774379 129.70486163 -36.0727626 129.65026516 -31.3293457 129.51660156 C-30.03561287 129.51064217 -30.03561287 129.51064217 -28.71574402 129.50456238 C-26.84685727 129.4933638 -24.97801128 129.47101011 -23.10936928 129.43875885 C-20.14435795 129.39010941 -17.1810096 129.37606696 -14.21562195 129.37176514 C-5.787136 129.3538687 2.64034834 129.27815613 11.06811523 129.16845703 C16.22889239 129.10369461 21.38838344 129.08308633 26.54953957 129.08861542 C28.50912757 129.08167563 30.46873606 129.05775674 32.42789268 129.01605988 C49.66909436 128.65284755 49.66909436 128.65284755 56.06103516 134.38085938 C57.40172975 135.89650907 58.71866827 137.43384387 60 139 C61.13943142 139.9801204 62.30785471 140.92831873 63.51171875 141.828125 C69.85687245 146.6669876 76.03245402 151.64752212 82.0625 156.875 C82.99098755 157.6779248 82.99098755 157.6779248 83.93823242 158.49707031 C87.44654566 161.55946441 90.68989192 164.68989192 94 168 C30.64 168 -32.72 168 -98 168 C-88.28185501 150.18340086 -78.37232388 132.52193263 -67.96777344 115.09643555 C-62.8769458 106.54514794 -57.97929828 97.89988618 -53.14624023 89.20092773 C-48.07587153 80.08980542 -42.83431836 71.08544756 -37.5625 62.08984375 C-33.86786398 55.78429083 -30.21207257 49.45671424 -26.5625 43.125 C-25.94793945 42.06079834 -25.33337891 40.99659668 -24.70019531 39.90014648 C-21.7524405 34.79231938 -18.813752 29.67972483 -15.90113831 24.55178833 C-14.53714293 22.15176542 -13.16842884 19.75445005 -11.79928589 17.35736084 C-10.835582 15.66552181 -9.87876322 13.96976675 -8.92211914 12.27392578 C-8.33551514 11.2476709 -7.74891113 10.22141602 -7.14453125 9.1640625 C-6.63253174 8.26123535 -6.12053223 7.3584082 -5.59301758 6.42822266 C-3.96049593 3.93978429 -2.1742396 2.02206931 0 0 Z " fill="#FCFDFD" transform="translate(277,118)"/>
<path d="M0 0 C21.1424986 -2.05704218 21.1424986 -2.05704218 27.15087891 1.14697266 C31.01073387 4.45211792 33.44851135 8.65693352 36 13 C37.0628011 14.34621473 38.16249261 15.66497366 39.3125 16.9375 C39.84875 17.54464844 40.385 18.15179688 40.9375 18.77734375 C49.04243636 27.51164069 57.3823972 35.92696476 67 43 C67.52029785 43.38607422 68.0405957 43.77214844 68.57666016 44.16992188 C86.83140247 57.67011204 104.68465836 66.11643223 126.26635742 72.87890625 C143.41001614 78.28410963 160.21353161 84.34122802 176 93 C176.71752441 93.3928418 177.43504883 93.78568359 178.17431641 94.19042969 C190.28294076 100.85529384 190.28294076 100.85529384 195 104 C199.34938979 103.71491395 202.22445168 101.79114915 205.8125 99.4375 C210.7828693 96.2637106 215.8418381 93.43286216 221.125 90.8125 C221.74479736 90.5043335 222.36459473 90.19616699 223.00317383 89.87866211 C224.99444977 88.90229288 226.99567 87.94927518 229 87 C229.80284424 86.61175049 230.60568848 86.22350098 231.43286133 85.82348633 C238.90991906 82.29690934 246.58741589 79.62653792 254.4375 77.0625 C255.7704633 76.6209623 257.10330706 76.17906354 258.43603516 75.73681641 C265.0640401 73.54823298 271.71110708 71.4690712 278.42822266 69.56835938 C309.10993592 60.87388066 335.47092458 39.52798094 356.5625 16.125 C357.41908203 15.18527344 357.41908203 15.18527344 358.29296875 14.2265625 C360.15152332 11.9538165 360.15152332 11.9538165 361.55078125 8.8359375 C365.29562998 1.98775588 365.29562998 1.98775588 369 0 C377.19823485 -1.5342712 385.74173986 -0.73073657 394 0 C392.82839508 3.14435612 391.61369751 5.81077835 389.6015625 8.49609375 C389.12879883 9.12966797 388.65603516 9.76324219 388.16894531 10.41601562 C387.65944336 11.08310547 387.14994141 11.75019531 386.625 12.4375 C385.8220752 13.49420898 385.8220752 13.49420898 385.00292969 14.57226562 C372.16925224 31.30792233 357.85968038 47.22680724 341 60 C340.45053711 60.42587402 339.90107422 60.85174805 339.33496094 61.29052734 C330.58980751 68.05686794 321.58754781 73.8668224 311.81347656 79.03613281 C310.19504976 79.89633058 308.59239989 80.7860624 306.9921875 81.6796875 C296.03524498 87.57018863 283.9118423 90.83280379 271.875 93.75 C245.02704917 100.73104897 218.99612968 113.87476969 198 132 C194.4957114 130.43617027 191.75139426 128.31430244 188.75 125.9375 C182.20071751 120.90195709 175.20349371 116.90096905 167.92138672 113.02587891 C166.20997425 112.11211077 164.51214372 111.17300749 162.81640625 110.23046875 C147.20737402 101.90954895 130.00117553 96.35256627 113.0625 91.4375 C83.09088421 82.6250464 58.27868101 65.52025783 36 44 C35.37915527 43.40106934 34.75831055 42.80213867 34.11865234 42.18505859 C23.75005829 32.12791167 14.60946126 21.6014017 6 10 C5.51821289 9.35224609 5.03642578 8.70449219 4.54003906 8.03710938 C2.59502718 5.37728807 1.04875241 3.14625723 0 0 Z " fill="#0B2F26" transform="translate(80,449)"/>
<path d="M0 0 C10.02595178 6.88197557 18.10645987 16.95722111 21.23046875 28.8359375 C23.34334704 42.33391202 22.32503949 55.99187896 14.828125 67.73046875 C13.80614273 69.12016177 12.76533104 70.49627311 11.703125 71.85546875 C11.26355469 72.4690625 10.82398438 73.08265625 10.37109375 73.71484375 C6.16223506 79.1972764 0.71252735 82.57022037 -5.296875 85.85546875 C-6.09480469 86.29375 -6.89273438 86.73203125 -7.71484375 87.18359375 C-17.93839458 91.7996326 -32.82368694 91.82060772 -43.421875 88.29296875 C-45.88671875 87.17578125 -45.88671875 87.17578125 -48.296875 85.85546875 C-49.22628906 85.35789062 -50.15570313 84.8603125 -51.11328125 84.34765625 C-63.07313796 77.35073328 -69.91191374 67.57996227 -74.43359375 54.58984375 C-77.55177879 41.1012243 -76.16670595 27.25949111 -68.8046875 15.46484375 C-61.57588902 5.35201685 -52.15626627 -2.33477861 -40.296875 -6.14453125 C-39.70648438 -6.33789062 -39.11609375 -6.53125 -38.5078125 -6.73046875 C-25.13199303 -9.23548088 -11.68976728 -6.76336535 0 0 Z " fill="#036734" transform="translate(454.296875,342.14453125)"/>
<path d="M0 0 C7.94274459 6.02409009 12.99681869 17.09815659 18.25 25.375 C19.6388187 27.55761259 21.02812596 29.73991439 22.41796875 31.921875 C23.32518677 33.35031738 23.32518677 33.35031738 24.25073242 34.80761719 C26.15561272 37.76979461 28.10146232 40.69978772 30.0625 43.625 C30.07708252 42.76334229 30.09166504 41.90168457 30.10668945 41.01391602 C30.16822869 37.77625625 30.24246783 34.53919072 30.32495117 31.30200195 C30.35793308 29.90855638 30.38604567 28.51498578 30.40893555 27.12133789 C30.72438733 8.4157186 30.72438733 8.4157186 35.4777832 3.01782227 C38.95580631 -0.03904445 41.77725651 -1.27800049 46.375 -1.625 C51.01716337 -1.31027706 54.18443562 -0.27331305 57.51171875 3.08984375 C61.56519021 7.8401871 62.19162093 10.25757704 62.23950195 16.42626953 C62.24607315 17.12572189 62.25264435 17.82517426 62.25941467 18.54582214 C62.27916325 20.86648668 62.29081676 23.18708629 62.30078125 25.5078125 C62.30485678 26.3013702 62.3089323 27.0949279 62.31313133 27.91253281 C62.33400373 32.1168161 62.34829752 36.3210667 62.35766602 40.52539062 C62.36870272 44.85633346 62.40306702 49.18675856 62.44283772 53.517519 C62.46906671 56.85654616 62.47736364 60.19545149 62.48094749 63.5345726 C62.48580122 65.13007967 62.49738046 66.72558173 62.51598549 68.3209877 C62.6877348 84.03170117 62.6877348 84.03170117 58.0625 90.625 C52.49758135 95.19129019 46.32687061 95.24900476 39.33203125 94.98828125 C33.69887782 94.36237531 31.07100587 92.91977567 27.36328125 88.68359375 C21.74588407 81.34682552 16.98264898 73.32482724 12.07397461 65.50634766 C8.88109636 60.42548716 5.61175408 55.46428428 2.0625 50.625 C2.0531543 51.5221875 2.04380859 52.419375 2.03417969 53.34375 C1.98988749 56.70648339 1.92815338 60.06799347 1.85498047 63.43017578 C1.82693964 64.87895216 1.80564189 66.32787672 1.79150391 67.77685547 C1.63617298 82.80253403 1.63617298 82.80253403 -2.9375 89.625 C-7.27064728 93.74677424 -10.7913183 95.00912099 -16.8125 94.8984375 C-20.4154389 94.43482404 -23.30465538 93.12620239 -25.9375 90.625 C-29.28707427 85.56205005 -30.43967279 82.33348255 -30.45507812 76.13256836 C-30.4620874 75.41941971 -30.46909668 74.70627106 -30.47631836 73.97151184 C-30.49379337 71.63554901 -30.48231561 69.30081691 -30.46875 66.96484375 C-30.47144767 65.33012156 -30.47533237 63.69540093 -30.48034668 62.0606842 C-30.48622721 58.64373414 -30.47772475 55.22720381 -30.45898438 51.81030273 C-30.43617713 47.43996556 -30.44933764 43.07061013 -30.47327423 38.7003088 C-30.48775616 35.32785192 -30.48311565 31.95562631 -30.47276306 28.58316231 C-30.47010331 26.97208094 -30.47333901 25.36097827 -30.48268127 23.7499218 C-30.49288906 21.4953975 -30.47729045 19.2424449 -30.45507812 16.98803711 C-30.45189575 15.70787216 -30.44871338 14.42770721 -30.44543457 13.10874939 C-29.68028337 7.86083914 -27.24709544 4.80683003 -23.375 1.3125 C-17.37498755 -2.84135478 -6.59318129 -3.2136101 0 0 Z " fill="#026733" transform="translate(305.9375,337.375)"/>
<path d="M0 0 C2.33285619 0.06198995 4.66298515 0.08193183 6.99658203 0.09375 C20.04219288 0.22830796 33.68778924 0.4564058 44.13720703 9.28125 C50.60097604 15.97831852 53.26340738 23.85358416 53.60205078 33.0625 C53.25861173 42.40182659 50.54731281 50.08341304 44.00439453 56.84765625 C32.79641977 66.95094356 19.41434512 67.02035776 5.10205078 66.5625 C5.15425781 68.28146484 5.15425781 68.28146484 5.20751953 70.03515625 C5.23567781 71.56508939 5.26297577 73.09503854 5.28955078 74.625 C5.3146875 75.37716797 5.33982422 76.12933594 5.36572266 76.90429688 C5.44764427 83.21226115 4.29684529 87.85558677 0.22705078 92.875 C-4.26543967 96.44256595 -8.21446128 97.06105157 -13.89794922 96.5625 C-19.15513648 94.66991259 -21.72797453 92.00046456 -24.89794922 87.5625 C-26.15174011 84.02439052 -26.03811982 80.51933238 -26.05908203 76.79370117 C-26.06404694 76.12161118 -26.06901184 75.44952118 -26.0741272 74.75706482 C-26.08869788 72.5398556 -26.09554248 70.32271793 -26.10107422 68.10546875 C-26.10683012 66.55853779 -26.11258779 65.01160685 -26.11834717 63.4646759 C-26.12884284 60.22245961 -26.13469479 56.980268 -26.13818359 53.73803711 C-26.14366358 49.59547086 -26.16768685 45.45323406 -26.19615555 41.31077099 C-26.21483391 38.11504684 -26.2199903 34.91940121 -26.22151947 31.72362709 C-26.2245351 30.19708773 -26.23252663 28.6705494 -26.24570465 27.14406395 C-26.26287389 25.00228609 -26.26085898 22.8613023 -26.25439453 20.71948242 C-26.25804016 19.50354904 -26.26168579 18.28761566 -26.26544189 17.03483582 C-25.70532448 11.74244254 -23.95076884 6.70857255 -19.78857422 3.15625 C-13.91364976 -0.87840132 -6.83308852 -0.18255799 0 0 Z " fill="#026734" transform="translate(170.89794921875,335.4375)"/>
<path d="M0 0 C1.1034375 -0.00773437 2.206875 -0.01546875 3.34375 -0.0234375 C7.98873295 0.56293411 10.40858153 2.23962193 13.61810303 5.57841492 C15.90964474 8.98375084 15.98574909 10.83480428 15.95410156 14.90942383 C15.95364838 16.86088066 15.95364838 16.86088066 15.95318604 18.85176086 C15.93276241 20.26185729 15.91189847 21.67194739 15.890625 23.08203125 C15.8831592 24.53219318 15.87746787 25.98236524 15.87347412 27.43254089 C15.85824413 31.23859802 15.81898616 35.04403889 15.7746582 38.84985352 C15.73364793 42.73770818 15.7154509 46.62566299 15.6953125 50.51367188 C15.65248838 58.1343947 15.58427023 65.75461081 15.5 73.375 C16.10996826 73.35928955 16.71993652 73.3435791 17.34838867 73.32739258 C20.1279971 73.26480187 22.90745692 73.22593378 25.6875 73.1875 C26.64720703 73.16236328 27.60691406 73.13722656 28.59570312 73.11132812 C37.57442896 73.01812336 37.57442896 73.01812336 41.5 76.375 C43.84483893 79.8140971 44.51080781 81.7589551 44.4375 85.9375 C43.24722699 90.30183436 41.56520482 93.14011843 37.62767029 95.49455261 C35.33581977 96.44293912 33.73906984 96.63390411 31.26977539 96.6496582 C30.44534439 96.65919022 29.62091339 96.66872223 28.77149963 96.67854309 C27.44794716 96.67717598 27.44794716 96.67717598 26.09765625 96.67578125 C25.18294052 96.68006638 24.26822479 96.6843515 23.32579041 96.68876648 C21.39339017 96.69450323 19.46096833 96.69501486 17.52856445 96.69067383 C14.57660982 96.6875151 11.62565881 96.71097679 8.67382812 96.73632812 C6.7942721 96.73860135 4.91471338 96.73930451 3.03515625 96.73828125 C2.15481216 96.747491 1.27446808 96.75670074 0.3674469 96.76618958 C-4.38529995 96.73041811 -7.74619134 96.60294359 -11.5 93.375 C-15.13800209 88.82094225 -16.08365168 85.32775028 -16.01757812 79.62890625 C-16.0245874 78.87688934 -16.03159668 78.12487244 -16.03881836 77.35006714 C-16.05633884 74.87882922 -16.04479763 72.40874837 -16.03125 69.9375 C-16.03394665 68.2116677 -16.0378305 66.48583688 -16.04284668 64.76000977 C-16.04873364 61.14877816 -16.04020486 57.53794319 -16.02148438 53.92675781 C-15.99869505 49.30642625 -16.01182248 44.68702418 -16.03577423 40.06672668 C-16.05025405 36.50468998 -16.04561626 32.94287229 -16.03526306 29.38082886 C-16.0326018 27.67764169 -16.03584436 25.9744344 -16.04518127 24.27127075 C-16.05538329 21.88734549 -16.0397968 19.50490863 -16.01757812 17.12109375 C-16.02567505 16.42273407 -16.03377197 15.72437439 -16.04211426 15.00485229 C-15.95656853 10.03044477 -14.58968925 7.22092186 -11.5 3.375 C-7.70423502 0.37634566 -4.78294077 -0.03352529 0 0 Z " fill="#036734" transform="translate(92.5,335.625)"/>
<path d="M0 0 C4.72964173 2.67666538 6.67494626 4.99039256 8.8203125 10.08203125 C9.21472168 13.60374451 9.21472168 13.60374451 9.24023438 17.53686523 C9.24870392 18.25801514 9.25717346 18.97916504 9.26589966 19.72216797 C9.28917742 22.09100283 9.29029413 24.45918472 9.2890625 26.828125 C9.29616931 28.48430131 9.30386907 30.14047518 9.31213379 31.79664612 C9.32555712 35.26236827 9.32715693 38.72786269 9.32128906 42.19360352 C9.31539272 46.62338077 9.34599084 51.05206212 9.38640594 55.48162746 C9.41232018 58.9004347 9.41515707 62.31897926 9.41151428 65.73787117 C9.41320184 67.37048155 9.42280921 69.00310454 9.44065857 70.63561821 C9.58016794 84.97116295 9.58016794 84.97116295 6.45898438 89.51586914 C2.39417921 93.4689749 -0.46784144 94.89182613 -6.1171875 95.51953125 C-10.44790969 95.32907884 -13.93474396 93.97157622 -17.1796875 91.08203125 C-20.84378197 86.44719697 -21.68309068 83.39334087 -21.69726562 77.51953125 C-21.7042749 76.78702148 -21.71128418 76.05451172 -21.71850586 75.29980469 C-21.73602147 72.89348743 -21.72448704 70.48835916 -21.7109375 68.08203125 C-21.71363429 66.40103939 -21.71751827 64.72004904 -21.72253418 63.0390625 C-21.72842048 59.52198382 -21.71989459 56.00531245 -21.70117188 52.48828125 C-21.67838251 47.98900936 -21.6915103 43.49069198 -21.71546173 38.99145508 C-21.72994341 35.52206278 -21.72530294 32.05289531 -21.71495056 28.58349609 C-21.71228981 26.92496629 -21.71553007 25.26641581 -21.72486877 23.60791016 C-21.73507396 21.28623704 -21.71948029 18.96609114 -21.69726562 16.64453125 C-21.69408325 15.32582031 -21.69090088 14.00710938 -21.68762207 12.6484375 C-21.0165636 7.93667491 -19.08835854 4.78165737 -15.5390625 1.62109375 C-10.40032339 -1.2975105 -5.57878607 -2.34948876 0 0 Z " fill="#016632" transform="translate(254.1796875,336.91796875)"/>
<path d="M0 0 C1.58468677 0.45363171 3.16769924 0.91311452 4.75 1.375 C5.63171875 1.63023438 6.5134375 1.88546875 7.421875 2.1484375 C10.92044888 3.30402705 13.38340197 4.38340197 16 7 C16.33 6.67 16.66 6.34 17 6 C19.33297433 5.95907063 21.66705225 5.95758277 24 6 C26.475 10.95 26.475 10.95 29 16 C29.886875 14.700625 30.77375 13.40125 31.6875 12.0625 C35.00607106 8.25353281 37.29784777 7.37343155 42.3125 7 C44.5413308 6.96130502 46.77118199 6.96057515 49 7 C50.010625 6.98839844 51.02125 6.97679687 52.0625 6.96484375 C54.37731015 6.94182717 56.68574144 6.95298346 59 7 C59 8.98 59 10.96 59 13 C55.7 13 52.4 13 49 13 C49 13.99 49 14.98 49 16 C52.3 15.67 55.6 15.34 59 15 C59 16.98 59 18.96 59 21 C56.03 21 53.06 21 50 21 C50 21.66 50 22.32 50 23 C50.71027344 22.98839844 51.42054688 22.97679688 52.15234375 22.96484375 C53.07144531 22.95582031 53.99054688 22.94679688 54.9375 22.9375 C56.31228516 22.92009766 56.31228516 22.92009766 57.71484375 22.90234375 C60 23 60 23 61 24 C61 25.65 61 27.3 61 29 C52.585 29.495 52.585 29.495 44 30 C43.34 27.69 42.68 25.38 42 23 C41.67 25.31 41.34 27.62 41 30 C39.02 30 37.04 30 35 30 C33.39274365 26.78548731 33.94251815 23.56387464 34 20 C32.02 22.31 30.04 24.62 28 27 C24.75267068 25.37633534 24.29844864 22.24612161 23 19 C22.34 21.64 21.68 24.28 21 27 C19.02 27 17.04 27 15 27 C15 22.71 15 18.42 15 14 C13.02 14.99 13.02 14.99 11 16 C11.33 19.3 11.66 22.6 12 26 C10.02 25.67 8.04 25.34 6 25 C5.34 22.36 4.68 19.72 4 17 C3.34 17 2.68 17 2 17 C1.01 19.475 1.01 19.475 0 22 C-1.98 21.67 -3.96 21.34 -6 21 C-4.78880323 13.65313537 -2.71328887 6.92810652 0 0 Z " fill="#13362D" transform="translate(229,30)"/>
<path d="M0 0 C1.93973412 1.32935446 3.50951509 2.58833322 5.0234375 4.38671875 C5.0234375 5.04671875 5.0234375 5.70671875 5.0234375 6.38671875 C3.4921875 7.67578125 3.4921875 7.67578125 1.5234375 9.01171875 C0.54890625 9.68074219 0.54890625 9.68074219 -0.4453125 10.36328125 C-0.950625 10.70101563 -1.4559375 11.03875 -1.9765625 11.38671875 C-5.9765625 9.38671875 -5.9765625 9.38671875 -7.7265625 8.26171875 C-11.11033948 6.94580548 -14.42292295 6.89924136 -17.9765625 7.38671875 C-20.79436784 8.77557123 -20.79436784 8.77557123 -22.9765625 10.38671875 C-23.6365625 10.38671875 -24.2965625 10.38671875 -24.9765625 10.38671875 C-27.34539314 14.97632812 -27.55537397 19.33770177 -26.9765625 24.38671875 C-25.39637186 28.65323347 -23.82982039 31.00495366 -19.9765625 33.38671875 C-14.21509009 34.34228003 -9.77952007 33.77704174 -4.9765625 30.38671875 C0.32823684 30.38671875 1.21326377 31.92292445 5.0234375 35.38671875 C1.2114584 40.79726973 -2.55056559 43.60338007 -8.9765625 45.38671875 C-16.99116038 46.63863404 -23.33848506 45.01360986 -29.9765625 40.38671875 C-35.09255313 35.83211012 -37.61665549 31.15405706 -38.27734375 24.23828125 C-38.30930503 15.43827482 -37.835739 9.17762076 -31.7265625 2.57421875 C-22.50478842 -5.80573363 -10.72747189 -5.93396701 0 0 Z " fill="#F6F7F7" transform="translate(322.9765625,460.61328125)"/>
<path d="M0 0 C3.42673696 1.52739084 6.05841282 3.54331171 8.9375 5.9375 C9.89785156 6.73542969 10.85820312 7.53335938 11.84765625 8.35546875 C12.89856731 9.2368244 13.94934327 10.11834117 15 11 C15.56058105 11.46744629 16.12116211 11.93489258 16.69873047 12.41650391 C18.42692935 13.85772352 20.15161541 15.30302824 21.875 16.75 C22.67732056 17.42083618 22.67732056 17.42083618 23.49584961 18.10522461 C26.85505168 20.94252715 29.8725012 23.8725012 33 27 C11.22 27 -10.56 27 -33 27 C-27.36734694 21.36734694 -27.36734694 21.36734694 -24.43359375 18.984375 C-23.78841797 18.45932373 -23.14324219 17.93427246 -22.47851562 17.39331055 C-21.80498047 16.85101807 -21.13144531 16.30872559 -20.4375 15.75 C-19.73947266 15.18514893 -19.04144531 14.62029785 -18.32226562 14.03833008 C-12.32381642 9.20875676 -6.21109648 4.5524514 0 0 Z " fill="#F4F9F7" transform="translate(278,209)"/>
<path d="M0 0 C10.56 0 21.12 0 32 0 C32 2.97 32 5.94 32 9 C24.74 9 17.48 9 10 9 C10 12.96 10 16.92 10 21 C16.6 21 23.2 21 30 21 C30 23.97 30 26.94 30 30 C23.4 30 16.8 30 10 30 C10 35.61 10 41.22 10 47 C6.7 47 3.4 47 0 47 C0 31.49 0 15.98 0 0 Z " fill="#FBFBFB" transform="translate(232,458)"/>
<path d="M0 0 C1.1383126 2.65107013 1.98307777 5.05592104 2.75 7.8125 C2.97042969 8.53759766 3.19085938 9.26269531 3.41796875 10.00976562 C4.44576531 13.49852847 5 16.338279 5 20 C3.2984375 20.4640625 3.2984375 20.4640625 1.5625 20.9375 C-1.78775099 21.62924531 -1.78775099 21.62924531 -3 23 C-6.0625 23.5625 -6.0625 23.5625 -10 23 C-12.99668976 20.61413376 -15.50715376 17.90076654 -18 15 C-17.67 18.3 -17.34 21.6 -17 25 C-18.98 25.33 -20.96 25.66 -23 26 C-25.49836687 19.2187185 -27.1808572 12.24720632 -27 5 C-24.3359375 4.22265625 -24.3359375 4.22265625 -21 4 C-18.2265625 5.87109375 -18.2265625 5.87109375 -15.625 8.4375 C-14.75101562 9.28183594 -13.87703125 10.12617187 -12.9765625 10.99609375 C-12.32429688 11.65738281 -11.67203125 12.31867187 -11 13 C-11.66 9.37 -12.32 5.74 -13 2 C-3.68773263 -1.42362771 -3.68773263 -1.42362771 0 0 Z " fill="#173931" transform="translate(316,32)"/>
<path d="M0 0 C1.39025391 -0.02126953 1.39025391 -0.02126953 2.80859375 -0.04296875 C6.83826596 0.29426623 9.52972674 1.11216125 12.36328125 4.0625 C12.86214844 4.76375 13.36101562 5.465 13.875 6.1875 C14.38675781 6.88875 14.89851563 7.59 15.42578125 8.3125 C16.5625 10.1875 16.5625 10.1875 16.5625 12.1875 C8.16523928 16.57697719 -1.05104447 18.14532907 -10.35546875 15.29296875 C-12.45496579 14.34836197 -14.45781852 13.36064458 -16.4375 12.1875 C-14.94191148 7.56477186 -12.75578781 4.66380151 -9.4375 1.1875 C-6.325534 0.06132815 -3.28914605 0.02280961 0 0 Z " fill="#FBFCFC" transform="translate(427.4375,398.8125)"/>
<path d="M0 0 C0.59954395 11.23589771 0.59954395 11.23589771 -3 16 C-7.20274155 19.69811129 -11.04278208 22.66254863 -16.625 23.625 C-20.71074554 22.86838046 -24.17047586 21.61243122 -28 20 C-25.85729488 12.38149289 -19.57790726 6.78561961 -12.9140625 2.96484375 C-8.48529416 0.73238298 -4.9147322 -0.0908606 0 0 Z " fill="#F7FAF9" transform="translate(426,352)"/>
<path d="M0 0 C9.21059146 0.51169953 16.23276526 3.70600922 22.5625 10.5 C25.29860204 13.62697376 26.46854998 15.86488204 27 20 C22.13455244 22.38307635 18.49673671 24.00773506 13 23 C7.98842048 19.99722281 3.26494444 16.89741666 0 12 C-0.1953125 9.08203125 -0.1953125 9.08203125 -0.125 5.8125 C-0.10695313 4.72582031 -0.08890625 3.63914062 -0.0703125 2.51953125 C-0.04710937 1.68808594 -0.02390625 0.85664063 0 0 Z " fill="#F9FBFA" transform="translate(429,352)"/>
<path d="M0 0 C0.71657097 9.87275553 -0.17391784 18.79131051 -6.4453125 26.859375 C-7.8125 28.25 -7.8125 28.25 -10 30 C-14.25014075 28.48209259 -15.95899274 25.93622829 -18 22 C-18.87378243 15.44663178 -17.30190501 9.73756951 -14 4 C-9.41224873 0.04317719 -5.93702326 -1.38761812 0 0 Z " fill="#FCFDFC" transform="translate(459,377)"/>
<path d="M0 0 C4.57570798 0.42564725 8.17863379 1.42473147 12 4 C15.87258775 9.7781468 17.80989504 16.05804251 17 23 C15.25821046 25.89959717 13.22148189 28.45455201 11 31 C8.29989136 30.63764776 7.21465726 30.2393069 5.3671875 28.1796875 C-0.44709843 19.19950766 -1.66466461 11.66554832 -1 1 C-0.67 0.67 -0.34 0.34 0 0 Z " fill="#FCFDFC" transform="translate(397,376)"/>
<path d="M0 0 C1.58468677 0.45363171 3.16769924 0.91311452 4.75 1.375 C5.63171875 1.63023438 6.5134375 1.88546875 7.421875 2.1484375 C10.92044888 3.30402705 13.38340197 4.38340197 16 7 C16.625 9.125 16.625 9.125 17 11 C16.34 11 15.68 11 15 11 C14.896875 11.639375 14.79375 12.27875 14.6875 12.9375 C14.460625 13.618125 14.23375 14.29875 14 15 C13.01 15.33 12.02 15.66 11 16 C11.33 19.3 11.66 22.6 12 26 C10.02 25.67 8.04 25.34 6 25 C5.34 22.36 4.68 19.72 4 17 C3.34 17 2.68 17 2 17 C1.01 19.475 1.01 19.475 0 22 C-1.98 21.67 -3.96 21.34 -6 21 C-4.78880323 13.65313537 -2.71328887 6.92810652 0 0 Z " fill="#1D3E35" transform="translate(229,30)"/>
<path d="M0 0 C2.56695636 0.39491636 4.67123994 0.83561997 7 2 C7.05802698 5.43742918 7.09360486 8.87473253 7.125 12.3125 C7.15013672 13.77719727 7.15013672 13.77719727 7.17578125 15.27148438 C7.18222656 16.20927734 7.18867188 17.14707031 7.1953125 18.11328125 C7.20578613 18.97735596 7.21625977 19.84143066 7.22705078 20.73168945 C7 23 7 23 5 26 C2.5625 24.75 2.5625 24.75 0 23 C-0.36162029 21.67405895 -0.69728039 20.34061543 -1 19 C-2.61116531 17.52537568 -2.61116531 17.52537568 -5 17 C-6.155 17.185625 -7.31 17.37125 -8.5 17.5625 C-12 18 -12 18 -14.21875 16.52734375 C-14.8065625 16.02332031 -15.394375 15.51929688 -16 15 C-15.32626343 14.37170288 -15.32626343 14.37170288 -14.63891602 13.73071289 C-12.61327169 11.84149326 -10.58788262 9.9520002 -8.5625 8.0625 C-7.85544922 7.40314453 -7.14839844 6.74378906 -6.41992188 6.06445312 C-5.74638672 5.43603516 -5.07285156 4.80761719 -4.37890625 4.16015625 C-3.7557251 3.57886963 -3.13254395 2.99758301 -2.49047852 2.39868164 C-1.65000401 1.609971 -0.81500364 0.81500364 0 0 Z " fill="#173930" transform="translate(216,25)"/>
<path d="M0 0 C1.61572266 1.16748047 1.61572266 1.16748047 3.1640625 2.6171875 C3.72867187 3.14183594 4.29328125 3.66648437 4.875 4.20703125 C5.4525 4.75746094 6.03 5.30789062 6.625 5.875 C7.21023438 6.41769531 7.79546875 6.96039063 8.3984375 7.51953125 C10.97891257 9.94020626 13.019935 12.0299025 15 15 C11.18876815 17.59163766 8.38516486 16.62645212 4 16 C1.64678152 16.46746366 1.64678152 16.46746366 0 18 C-0.309375 18.845625 -0.61875 19.69125 -0.9375 20.5625 C-1.288125 21.366875 -1.63875 22.17125 -2 23 C-4.56640625 23.65234375 -4.56640625 23.65234375 -7 24 C-7.67453101 16.31516461 -8.1567564 8.71589817 -8 1 C-4.87886047 -0.89497757 -3.44002537 -1.20764242 0 0 Z " fill="#14362E" transform="translate(329,27)"/>
<path d="M0 0 C10.99905571 -0.60434372 10.99905571 -0.60434372 15.3125 2 C17.29755135 5.52898017 17.36497731 7.31375745 16.58203125 11.19921875 C15.82641425 13.53706733 15.09007331 14.68402791 13 16 C10.02180656 16.92626319 7.35958497 17.10822919 4.25 17.0625 C2.14625 17.0315625 2.14625 17.0315625 0 17 C0 11.39 0 5.78 0 0 Z " fill="#F9FBFA" transform="translate(176,361)"/>
<path d="M0 0 C2.34589548 0.58325259 4.4081729 0.6685054 6.82438278 0.68763828 C8.23358742 0.70232151 8.23358742 0.70232151 9.67126083 0.71730137 C10.69481171 0.72305683 11.71836258 0.72881229 12.77293015 0.73474216 C14.3977758 0.74959156 14.3977758 0.74959156 16.05544662 0.76474094 C19.63735897 0.79633865 23.21928458 0.82110667 26.80125046 0.84582615 C29.28418447 0.86639716 31.767115 0.88739367 34.25004196 0.90879917 C40.11831089 0.95836145 45.98660065 1.00363074 51.85491967 1.04682153 C59.19253539 1.10108931 66.5300921 1.1620201 73.86765671 1.22277927 C86.9548569 1.33034219 100.0420962 1.43197655 113.12937546 1.5294199 C113.12937546 1.8594199 113.12937546 2.1894199 113.12937546 2.5294199 C72.86937546 2.5294199 32.60937546 2.5294199 -8.87062454 2.5294199 C-6.25058646 -0.09061818 -3.67218435 -0.92378606 0 0 Z " fill="#435E57" transform="translate(390.8706245422363,316.4705801010132)"/>
<path d="M0 0 C3.0625 0.3125 3.0625 0.3125 4.9375 1.5 C6.46909584 3.96757108 6.49072025 5.45769831 6.0625 8.3125 C5 10.1875 5 10.1875 3.0625 11.3125 C-0.5625 11.125 -0.5625 11.125 -3.9375 10.3125 C-5.31875018 7.54999964 -5.12829306 5.36518901 -4.9375 2.3125 C-2.9375 0.3125 -2.9375 0.3125 0 0 Z " fill="#F0F2F2" transform="translate(274.9375,494.6875)"/>
<path d="M0 0 C3.43129707 1.14376569 4.37846879 2.28918768 6.6875 5 C7.31011719 5.721875 7.93273437 6.44375 8.57421875 7.1875 C10 9 10 9 10 10 C4.06 10 -1.88 10 -8 10 C-5.51567521 5.85945868 -3.43301849 3.24744993 0 0 Z " fill="#F7FAF9" transform="translate(278,164)"/>
<path d="M0 0 C0.33 0 0.66 0 1 0 C1.99 5.61 2.98 11.22 4 17 C-0.29 16.67 -4.58 16.34 -9 16 C-9 15.34 -9 14.68 -9 14 C-6.03 14 -3.06 14 0 14 C0 12.02 0 10.04 0 8 C-3.3 8.33 -6.6 8.66 -10 9 C-10 8.01 -10 7.02 -10 6 C-6.7 6 -3.4 6 0 6 C0 4.02 0 2.04 0 0 Z " fill="#EAEDEC" transform="translate(288,37)"/>
</svg>
